<?xml version="1.0" encoding="UTF-8"?>
<svg xmlns="http://www.w3.org/2000/svg" version="1.1" viewBox="0 0 575 230">
  <defs>
    <style>
      .cls-1 {
        fill: #fff;
      }

      .cls-2 {
        display: none;
      }

      .cls-3 {
        stroke-width: 10px;
      }

      .cls-3, .cls-4 {
        fill: none;
        stroke: #000;
        stroke-miterlimit: 10;
      }

      .cls-4 {
        stroke-width: 9px;
      }
    </style>
  </defs>
  <!-- Generator: Adobe Illustrator 28.6.0, SVG Export Plug-In . SVG Version: 1.2.0 Build 709)  -->
  <g>
    <g id="Layer_1">
      <rect class="cls-4" x="53.85" y="39.22" width="490.84" height="159.78" rx="79.89" ry="79.89"/>
      <path d="M108.26,103.35c0,6.34-2.41,12.58-7.24,17.41l-2.72,2.62-32.5,32.3c-.2.2-.6.3-.91.5,0,0-.1.2-.2.1-.1.1-.1.2-.4.3,0,0-.1.1-.2,0-.5.1-1.11.2-1.51,0-.3.1-.5,0-.7-.1-.4-.2-.81-.5-1.21-.81h-.1l-32.1-31.79-3.22-3.22c-9.76-9.66-9.66-25.35.2-34.81l.3-.3c9.56-9.16,25.15-9.06,34.61.3l2.41,2.41c.2.2.5.2.7,0l1.11-1.11c9.46-9.46,25.05-11.17,35.11-2.41,5.63,4.93,8.55,11.77,8.55,18.61Z"/>
      <path d="M534.59,107.79c3.72,24.08-4.62,46.26-19.95,61.46-12.78,12.88-30.59,20.83-50.21,20.83H134.02c-26.26,0-49.2-14.29-61.37-35.62l27.97-28.88,2.92-2.92c5.13-5.33,7.75-12.27,7.75-19.22s-2.62-13.99-7.75-19.32c-7.24-7.45-17.61-9.66-26.76-6.64,2.01-3.02,4.53-5.94,7.14-8.55,12.78-12.88,30.59-20.83,50.11-20.83h328.07c35.32,0,67.1,24.77,72.5,59.67Z"/>
    </g>
    <g id="Layer_2" class="cls-2">
      <circle class="cls-1" cx="292.27" cy="101.78" r="2.1"/>
      <circle class="cls-1" cx="303.8" cy="101.78" r="2.1"/>
      <circle class="cls-1" cx="315.32" cy="101.78" r="2.1"/>
      <rect class="cls-3" x="263.03" y="33.96" width="80.09" height="147.8" rx="16.84" ry="16.84"/>
      <path d="M307.51,34.91c0-.9.25-1.78.73-2.53l10.22-16.27c1.77-2.81,5.92-2.81,7.69,0l10.22,16.27c.48.76.73,1.63.73,2.53"/>
      <path d="M269.07,34.91c0-.9.25-1.78.73-2.53l10.22-16.27c1.77-2.81,5.92-2.81,7.69,0l10.22,16.27c.48.76.73,1.63.73,2.53"/>
      <path d="M297.92,123.41c-.17-.19.07-.57.12-.95.02-.18.1-.9.17-1.75.11-1.3.16-2.47.18-3.2-1.07-.15-2.63-.41-4.47-.9-4.35-1.17-9.9-3-14.18-8.42-3.48-4.41-3.03-11.76.75-15.91,4.39-4.82,9.95-6.96,15.99-7.98,8.21-1.39,16.14-.54,23.48,3.53,11.66,6.46,11.98,18.77.48,25.41-2.39,1.38-4.36,2.7-7.22,4.23-2.07,1.11-3.92,1.96-5.05,2.47-1.71.78-.81.32-4.54,1.94-1.27.55-2.24.98-3.66,1.27-.84.17-1.72.62-2.06.26Z"/>
    </g>
  </g>
</svg>